999
dxflib 3.17.0.0
  0
SECTION
  2
HEADER
  9
$ACADVER
  1
AC1015
  9
$HANDSEED
  5
FFFF
  9
$DIMADEC
 70
0
  9
$DIMASZ
 40
2.5
  9
$DIMAUNIT
 70
0
  9
$DIMAZIN
 70
2
  9
$DIMDEC
 70
4
  9
$DIMDSEP
 70
46
  9
$DIMEXE
 40
1.25
  9
$DIMEXO
 40
0.625
  9
$DIMGAP
 40
0.625
  9
$DIMLUNIT
 70
2
  9
$DIMSCALE
 40
1.0
  9
$DIMTSZ
 40
0.0
  9
$DIMTXT
 40
2.5
  9
$DIMZIN
 70
8
  9
$DWGCODEPAGE
  3
ANSI_1252
  9
$INSUNITS
 70
4
  9
$LTSCALE
 40
1.0
  9
$MAXACTVP
 70
64
  9
$MEASUREMENT
 70
1
  9
$PDMODE
 70
0
  9
$PDSIZE
 40
0.0
  0
ENDSEC
  0
SECTION
  2
TABLES
  0
TABLE
  2
VPORT
  5
8
100
AcDbSymbolTable
 70
1
  0
VPORT
  5
30
100
AcDbSymbolTableRecord
100
AcDbViewportTableRecord
  2
*Active
 70
0
 10
0.0
 20
0.0
 11
1.0
 21
1.0
 12
286.3055555555554861
 22
148.5
 13
0.0
 23
0.0
 14
10.0
 24
10.0
 15
10.0
 25
10.0
 16
0.0
 26
0.0
 36
1.0
 17
0.0
 27
0.0
 37
0.0
 40
297.0
 41
1.92798353909465
 42
50.0
 43
0.0
 44
0.0
 50
0.0
 51
0.0
 71
0
 72
100
 73
1
 74
3
 75
1
 76
1
 77
0
 78
0
281
0
 65
1
110
0.0
120
0.0
130
0.0
111
1.0
121
0.0
131
0.0
112
0.0
122
1.0
132
0.0
 79
0
146
0.0
  0
ENDTAB
  0
TABLE
  2
LTYPE
  5
5
100
AcDbSymbolTable
 70
41
  0
LTYPE
  5
16
100
AcDbSymbolTableRecord
100
AcDbLinetypeTableRecord
  2
Continuous
 70
0
  3
Solid line
 72
65
 73
0
 40
0.0
  0
LTYPE
  5
31
100
AcDbSymbolTableRecord
100
AcDbLinetypeTableRecord
  2
HIDDEN
 70
0
  3
Hidden __ __ __ __ __ __ __ __ __ __ __ __ __ __
 72
65
 73
2
 40
9.5249999999999986
 49
6.3499999999999996
 74
0
 49
-3.1749999999999998
 74
0
  0
LTYPE
  5
32
100
AcDbSymbolTableRecord
100
AcDbLinetypeTableRecord
  2
ACAD_ISO03W100
 70
0
  3
ISO dash space __    __    __    __    __    __
 72
65
 73
2
 40
30.0
 49
12.0
 74
0
 49
-18.0
 74
0
  0
LTYPE
  5
33
100
AcDbSymbolTableRecord
100
AcDbLinetypeTableRecord
  2
ACAD_ISO12W100
 70
0
  3
ISO dash double-dot __ . . __ . . __ . . __ . . 
 72
65
 73
6
 40
21.0
 49
12.0
 74
0
 49
-2.9500000000000002
 74
0
 49
0.1
 74
0
 49
-2.9000000000000004
 74
0
 49
0.1
 74
0
 49
-2.9500000000000002
 74
0
  0
LTYPE
  5
34
100
AcDbSymbolTableRecord
100
AcDbLinetypeTableRecord
  2
ACAD_ISO05W100
 70
0
  3
ISO long-dash double-dot ____ .. ____ .. ____ . 
 72
65
 73
6
 40
33.0000000000000071
 49
24.0
 74
0
 49
-2.9500000000000002
 74
0
 49
0.1
 74
0
 49
-2.9000000000000004
 74
0
 49
0.1
 74
0
 49
-2.9500000000000002
 74
0
  0
LTYPE
  5
35
100
AcDbSymbolTableRecord
100
AcDbLinetypeTableRecord
  2
DASHDOT
 70
0
  3
Dash dot __ . __ . __ . __ . __ . __ . __ . __
 72
65
 73
4
 40
25.4000000000000021
 49
12.6999999999999993
 74
0
 49
-6.2999999999999998
 74
0
 49
0.1
 74
0
 49
-6.2999999999999998
 74
0
  0
LTYPE
  5
36
100
AcDbSymbolTableRecord
100
AcDbLinetypeTableRecord
  2
ACAD_ISO11W100
 70
0
  3
ISO double-dash dot __ __ . __ __ . __ __ . __ _
 72
65
 73
6
 40
33.0
 49
12.0
 74
0
 49
-3.0
 74
0
 49
12.0
 74
0
 49
-2.9500000000000002
 74
0
 49
0.1
 74
0
 49
-2.9500000000000002
 74
0
  0
LTYPE
  5
37
100
AcDbSymbolTableRecord
100
AcDbLinetypeTableRecord
  2
BORDER2
 70
0
  3
Border (.5x) __.__.__.__.__.__.__.__.__.__.__.
 72
65
 73
6
 40
22.2250000000000014
 49
6.3499999999999996
 74
0
 49
-3.1749999999999998
 74
0
 49
6.3499999999999996
 74
0
 49
-3.125
 74
0
 49
0.1
 74
0
 49
-3.125
 74
0
  0
LTYPE
  5
38
100
AcDbSymbolTableRecord
100
AcDbLinetypeTableRecord
  2
ACAD_ISO15W100
 70
0
  3
ISO double-dash triple-dot __ __ . . . __ __ . .
 72
65
 73
10
 40
39.0000000000000071
 49
12.0
 74
0
 49
-3.0
 74
0
 49
12.0
 74
0
 49
-2.9500000000000002
 74
0
 49
0.1
 74
0
 49
-2.9000000000000004
 74
0
 49
0.1
 74
0
 49
-2.9000000000000004
 74
0
 49
0.1
 74
0
 49
-2.9500000000000002
 74
0
  0
LTYPE
  5
39
100
AcDbSymbolTableRecord
100
AcDbLinetypeTableRecord
  2
PHANTOM2
 70
0
  3
Phantom (.5x) ___ _ _ ___ _ _ ___ _ _ ___ _ _
 72
65
 73
6
 40
31.7500000000000036
 49
15.875
 74
0
 49
-3.1749999999999998
 74
0
 49
3.1749999999999998
 74
0
 49
-3.1749999999999998
 74
0
 49
3.1749999999999998
 74
0
 49
-3.1749999999999998
 74
0
  0
LTYPE
  5
3A
100
AcDbSymbolTableRecord
100
AcDbLinetypeTableRecord
  2
DASHEDX2
 70
0
  3
Dashed (2x) ____  ____  ____  ____  ____  ___
 72
65
 73
2
 40
38.0999999999999943
 49
25.3999999999999986
 74
0
 49
-12.6999999999999993
 74
0
  0
LTYPE
  5
3B
100
AcDbSymbolTableRecord
100
AcDbLinetypeTableRecord
  2
ACAD_ISO14W100
 70
0
  3
ISO dash triple-dot __ . . . __ . . . __ . . . _
 72
65
 73
8
 40
24.0000000000000036
 49
12.0
 74
0
 49
-2.9500000000000002
 74
0
 49
0.1
 74
0
 49
-2.9000000000000004
 74
0
 49
0.1
 74
0
 49
-2.9000000000000004
 74
0
 49
0.1
 74
0
 49
-2.9500000000000002
 74
0
  0
LTYPE
  5
3C
100
AcDbSymbolTableRecord
100
AcDbLinetypeTableRecord
  2
ACAD_ISO07W100
 70
0
  3
ISO dot . . . . . . . . . . . . . . . . . . . . 
 72
65
 73
2
 40
3.0
 49
0.1
 74
0
 49
-2.8999999999999999
 74
0
  0
LTYPE
  5
3D
100
AcDbSymbolTableRecord
100
AcDbLinetypeTableRecord
  2
ACAD_ISO04W100
 70
0
  3
ISO long-dash dot ____ . ____ . ____ . ____ . _
 72
65
 73
4
 40
30.0
 49
24.0
 74
0
 49
-2.9500000000000002
 74
0
 49
0.1
 74
0
 49
-2.9500000000000002
 74
0
  0
LTYPE
  5
3E
100
AcDbSymbolTableRecord
100
AcDbLinetypeTableRecord
  2
HIDDEN2
 70
0
  3
Hidden (.5x) _ _ _ _ _ _ _ _ _ _ _ _ _ _ _ _ _ 
 72
65
 73
2
 40
4.7624999999999993
 49
3.1749999999999998
 74
0
 49
-1.5874999999999999
 74
0
  0
LTYPE
  5
3F
100
AcDbSymbolTableRecord
100
AcDbLinetypeTableRecord
  2
DOT
 70
0
  3
Dot . . . . . . . . . . . . . . . . . . . . . . . .
 72
65
 73
2
 40
6.3499999999999996
 49
0.1
 74
0
 49
-6.25
 74
0
  0
LTYPE
  5
40
100
AcDbSymbolTableRecord
100
AcDbLinetypeTableRecord
  2
DOTX2
 70
0
  3
Dot (2x) .  .  .  .  .  .  .  .  .  .  .  .  .  .
 72
65
 73
2
 40
12.6999999999999993
 49
0.1
 74
0
 49
-12.5999999999999996
 74
0
  0
LTYPE
  5
41
100
AcDbSymbolTableRecord
100
AcDbLinetypeTableRecord
  2
DASHDOTX2
 70
0
  3
Dash dot (2x) ____  .  ____  .  ____  .  ___
 72
65
 73
4
 40
50.7999999999999972
 49
25.3999999999999986
 74
0
 49
-12.6499999999999986
 74
0
 49
0.1
 74
0
 49
-12.6499999999999986
 74
0
  0
LTYPE
  5
15
100
AcDbSymbolTableRecord
100
AcDbLinetypeTableRecord
  2
BYLAYER
 70
0
  3

 72
65
 73
0
 40
0.0
  0
LTYPE
  5
42
100
AcDbSymbolTableRecord
100
AcDbLinetypeTableRecord
  2
DASHDOT2
 70
0
  3
Dash dot (.5x) _._._._._._._._._._._._._._._.
 72
65
 73
4
 40
12.6999999999999993
 49
6.3499999999999996
 74
0
 49
-3.125
 74
0
 49
0.1
 74
0
 49
-3.125
 74
0
  0
LTYPE
  5
43
100
AcDbSymbolTableRecord
100
AcDbLinetypeTableRecord
  2
CENTER
 70
0
  3
Center ____ _ ____ _ ____ _ ____ _ ____ _ ____
 72
65
 73
4
 40
50.8000000000000043
 49
31.75
 74
0
 49
-6.3499999999999996
 74
0
 49
6.3499999999999996
 74
0
 49
-6.3499999999999996
 74
0
  0
LTYPE
  5
44
100
AcDbSymbolTableRecord
100
AcDbLinetypeTableRecord
  2
PHANTOM
 70
0
  3
Phantom ______  __  __  ______  __  __  ______ 
 72
65
 73
6
 40
63.5000000000000071
 49
31.75
 74
0
 49
-6.3499999999999996
 74
0
 49
6.3499999999999996
 74
0
 49
-6.3499999999999996
 74
0
 49
6.3499999999999996
 74
0
 49
-6.3499999999999996
 74
0
  0
LTYPE
  5
45
100
AcDbSymbolTableRecord
100
AcDbLinetypeTableRecord
  2
DIVIDEX2
 70
0
  3
Divide (2x) ________  .  .  ________  .  .  _
 72
65
 73
6
 40
63.5
 49
25.3999999999999986
 74
0
 49
-12.6499999999999986
 74
0
 49
0.1
 74
0
 49
-12.5999999999999979
 74
0
 49
0.1
 74
0
 49
-12.6499999999999986
 74
0
  0
LTYPE
  5
14
100
AcDbSymbolTableRecord
100
AcDbLinetypeTableRecord
  2
BYBLOCK
 70
0
  3

 72
65
 73
0
 40
0.0
  0
LTYPE
  5
46
100
AcDbSymbolTableRecord
100
AcDbLinetypeTableRecord
  2
DOT2
 70
0
  3
Dot (.5x) ........................................
 72
65
 73
2
 40
3.1749999999999998
 49
0.1
 74
0
 49
-3.0749999999999997
 74
0
  0
LTYPE
  5
47
100
AcDbSymbolTableRecord
100
AcDbLinetypeTableRecord
  2
BORDER
 70
0
  3
Border __ __ . __ __ . __ __ . __ __ . __ __ .
 72
65
 73
6
 40
44.4499999999999957
 49
12.6999999999999993
 74
0
 49
-6.3499999999999996
 74
0
 49
12.6999999999999993
 74
0
 49
-6.2999999999999998
 74
0
 49
0.1
 74
0
 49
-6.2999999999999998
 74
0
  0
LTYPE
  5
48
100
AcDbSymbolTableRecord
100
AcDbLinetypeTableRecord
  2
ACAD_ISO13W100
 70
0
  3
ISO double-dash double-dot __ __ . . __ __ . . _
 72
65
 73
8
 40
36.0000000000000071
 49
12.0
 74
0
 49
-3.0
 74
0
 49
12.0
 74
0
 49
-2.9500000000000002
 74
0
 49
0.1
 74
0
 49
-2.9000000000000004
 74
0
 49
0.1
 74
0
 49
-2.9500000000000002
 74
0
  0
LTYPE
  5
49
100
AcDbSymbolTableRecord
100
AcDbLinetypeTableRecord
  2
DIVIDE
 70
0
  3
Divide ____ . . ____ . . ____ . . ____ . . ____
 72
65
 73
6
 40
31.7500000000000036
 49
12.6999999999999993
 74
0
 49
-6.2999999999999998
 74
0
 49
0.1
 74
0
 49
-6.25
 74
0
 49
0.1
 74
0
 49
-6.2999999999999998
 74
0
  0
LTYPE
  5
4A
100
AcDbSymbolTableRecord
100
AcDbLinetypeTableRecord
  2
ACAD_ISO09W100
 70
0
  3
ISO long-dash double-short-dash ____ __ __ ____
 72
65
 73
6
 40
45.0
 49
24.0
 74
0
 49
-3.0
 74
0
 49
6.0
 74
0
 49
-3.0
 74
0
 49
6.0
 74
0
 49
-3.0
 74
0
  0
LTYPE
  5
4B
100
AcDbSymbolTableRecord
100
AcDbLinetypeTableRecord
  2
HIDDENX2
 70
0
  3
Hidden (2x) ____ ____ ____ ____ ____ ____ ____ 
 72
65
 73
2
 40
19.0499999999999972
 49
12.6999999999999993
 74
0
 49
-6.3499999999999996
 74
0
  0
LTYPE
  5
4C
100
AcDbSymbolTableRecord
100
AcDbLinetypeTableRecord
  2
BORDERX2
 70
0
  3
Border (2x) ____  ____  .  ____  ____  .  ___
 72
65
 73
6
 40
88.8999999999999773
 49
25.3999999999999986
 74
0
 49
-12.6999999999999993
 74
0
 49
25.3999999999999986
 74
0
 49
-12.6499999999999986
 74
0
 49
0.1
 74
0
 49
-12.6499999999999986
 74
0
  0
LTYPE
  5
4D
100
AcDbSymbolTableRecord
100
AcDbLinetypeTableRecord
  2
CENTERX2
 70
0
  3
Center (2x) ________  __  ________  __  _____
 72
65
 73
4
 40
101.6000000000000085
 49
63.5
 74
0
 49
-12.6999999999999993
 74
0
 49
12.6999999999999993
 74
0
 49
-12.6999999999999993
 74
0
  0
LTYPE
  5
4E
100
AcDbSymbolTableRecord
100
AcDbLinetypeTableRecord
  2
DASHED2
 70
0
  3
Dashed (.5x) _ _ _ _ _ _ _ _ _ _ _ _ _ _ _ _ _ 
 72
65
 73
2
 40
9.5249999999999986
 49
6.3499999999999996
 74
0
 49
-3.1749999999999998
 74
0
  0
LTYPE
  5
4F
100
AcDbSymbolTableRecord
100
AcDbLinetypeTableRecord
  2
ACAD_ISO08W100
 70
0
  3
ISO long-dash short-dash ____ __ ____ __ ____ _
 72
65
 73
4
 40
36.0
 49
24.0
 74
0
 49
-3.0
 74
0
 49
6.0
 74
0
 49
-3.0
 74
0
  0
LTYPE
  5
50
100
AcDbSymbolTableRecord
100
AcDbLinetypeTableRecord
  2
DIVIDE2
 70
0
  3
Divide (.5x) __..__..__..__..__..__..__..__.._
 72
65
 73
6
 40
15.8749999999999982
 49
6.3499999999999996
 74
0
 49
-3.125
 74
0
 49
0.1
 74
0
 49
-3.0750000000000002
 74
0
 49
0.1
 74
0
 49
-3.125
 74
0
  0
LTYPE
  5
51
100
AcDbSymbolTableRecord
100
AcDbLinetypeTableRecord
  2
ACAD_ISO02W100
 70
0
  3
ISO dash __ __ __ __ __ __ __ __ __ __ __ __ __
 72
65
 73
2
 40
15.0
 49
12.0
 74
0
 49
-3.0
 74
0
  0
LTYPE
  5
52
100
AcDbSymbolTableRecord
100
AcDbLinetypeTableRecord
  2
ACAD_ISO06W100
 70
0
  3
ISO long-dash triple-dot ____ ... ____ ... ____
 72
65
 73
8
 40
36.0000000000000071
 49
24.0
 74
0
 49
-2.9500000000000002
 74
0
 49
0.1
 74
0
 49
-2.9000000000000004
 74
0
 49
0.1
 74
0
 49
-2.9000000000000004
 74
0
 49
0.1
 74
0
 49
-2.9500000000000002
 74
0
  0
LTYPE
  5
53
100
AcDbSymbolTableRecord
100
AcDbLinetypeTableRecord
  2
DASHED
 70
0
  3
Dashed __ __ __ __ __ __ __ __ __ __ __ __ __ _
 72
65
 73
2
 40
19.0499999999999972
 49
12.6999999999999993
 74
0
 49
-6.3499999999999996
 74
0
  0
LTYPE
  5
54
100
AcDbSymbolTableRecord
100
AcDbLinetypeTableRecord
  2
ACAD_ISO10W100
 70
0
  3
ISO dash dot __ . __ . __ . __ . __ . __ . __ . 
 72
65
 73
4
 40
18.0
 49
12.0
 74
0
 49
-2.9500000000000002
 74
0
 49
0.1
 74
0
 49
-2.9500000000000002
 74
0
  0
LTYPE
  5
55
100
AcDbSymbolTableRecord
100
AcDbLinetypeTableRecord
  2
CENTER2
 70
0
  3
Center (.5x) ___ _ ___ _ ___ _ ___ _ ___ _ ___
 72
65
 73
4
 40
28.5750000000000028
 49
19.0500000000000007
 74
0
 49
-3.1749999999999998
 74
0
 49
3.1749999999999998
 74
0
 49
-3.1749999999999998
 74
0
  0
LTYPE
  5
56
100
AcDbSymbolTableRecord
100
AcDbLinetypeTableRecord
  2
PHANTOMX2
 70
0
  3
Phantom (2x) ____________    ____    ____   _
 72
65
 73
6
 40
127.0000000000000142
 49
63.5
 74
0
 49
-12.6999999999999993
 74
0
 49
12.6999999999999993
 74
0
 49
-12.6999999999999993
 74
0
 49
12.6999999999999993
 74
0
 49
-12.6999999999999993
 74
0
  0
ENDTAB
  0
TABLE
  2
LAYER
  5
2
100
AcDbSymbolTable
 70
1
  0
LAYER
  5
10
100
AcDbSymbolTableRecord
100
AcDbLayerTableRecord
  2
0
 70
0
 62
7
420
16777215
  6
Continuous
370
25
390
F
  0
ENDTAB
  0
TABLE
  2
STYLE
  5
3
100
AcDbSymbolTable
 70
5
  0
STYLE
  5
57
100
AcDbSymbolTableRecord
100
AcDbTextStyleTableRecord
  2
Standard
 70
0
 40
0.0
 41
1.0
 50
0.0
 71
0
 42
2.5
  3

  4

1001
ACAD
1000
txt
1071
0
  0
STYLE
  5
58
100
AcDbSymbolTableRecord
100
AcDbTextStyleTableRecord
  2
textstyle0
 70
0
 40
0.0
 41
1.0
 50
0.0
 71
0
 42
1.0
  3

  4

1001
ACAD
1000
Arial
1071
0
  0
STYLE
  5
59
100
AcDbSymbolTableRecord
100
AcDbTextStyleTableRecord
  2
textstyle1
 70
0
 40
0.0
 41
1.0
 50
0.0
 71
0
 42
1.0
  3

  4

1001
ACAD
1000
Arial
1071
0
  0
STYLE
  5
5A
100
AcDbSymbolTableRecord
100
AcDbTextStyleTableRecord
  2
textstyle2
 70
0
 40
0.0
 41
1.0
 50
0.0
 71
0
 42
1.0
  3

  4

1001
ACAD
1000
Arial
1071
0
  0
STYLE
  5
5B
100
AcDbSymbolTableRecord
100
AcDbTextStyleTableRecord
  2
textstyle3
 70
0
 40
0.0
 41
1.0
 50
0.0
 71
0
 42
1.0
  3

  4

1001
ACAD
1000
Arial
1071
0
  0
ENDTAB
  0
TABLE
  2
VIEW
  5
6
100
AcDbSymbolTable
 70
0
  0
ENDTAB
  0
TABLE
  2
UCS
  5
7
100
AcDbSymbolTable
 70
0
  0
ENDTAB
  0
TABLE
  2
APPID
  5
9
100
AcDbSymbolTable
 70
1
  0
APPID
  5
12
100
AcDbSymbolTableRecord
100
AcDbRegAppTableRecord
  2
ACAD
 70
0
  0
APPID
  5
5C
100
AcDbSymbolTableRecord
100
AcDbRegAppTableRecord
  2
QCAD
 70
0
  0
ENDTAB
  0
TABLE
  2
DIMSTYLE
  5
A
100
AcDbSymbolTable
 70
1
100
AcDbDimStyleTable
 71
0
  0
DIMSTYLE
105
27
100
AcDbSymbolTableRecord
100
AcDbDimStyleTableRecord
  2
Standard
 41
2.5
 42
0.625
 43
3.75
 44
1.25
 70
0
 73
0
 74
0
 77
1
 78
8
140
2.5
141
2.5
143
0.03937007874016
147
0.625
171
3
172
1
271
2
272
2
274
3
278
44
283
0
284
8
340
57
  0
ENDTAB
  0
TABLE
  2
BLOCK_RECORD
  5
1
100
AcDbSymbolTable
 70
1
  0
BLOCK_RECORD
  5
1F
100
AcDbSymbolTableRecord
100
AcDbBlockTableRecord
  2
*Model_Space
340
22
  0
BLOCK_RECORD
  5
1B
100
AcDbSymbolTableRecord
100
AcDbBlockTableRecord
  2
*Paper_Space
340
1E
  0
BLOCK_RECORD
  5
23
100
AcDbSymbolTableRecord
100
AcDbBlockTableRecord
  2
*Paper_Space0
340
26
  0
ENDTAB
  0
ENDSEC
  0
SECTION
  2
BLOCKS
  0
BLOCK
  5
20
100
AcDbEntity
  8
0
100
AcDbBlockBegin
  2
*Model_Space
 70
0
 10
0.0
 20
0.0
 30
0.0
  3
*Model_Space
  1

  0
ENDBLK
  5
21
100
AcDbEntity
  8
0
100
AcDbBlockEnd
  0
BLOCK
  5
1C
100
AcDbEntity
 67
1
  8
0
100
AcDbBlockBegin
  2
*Paper_Space
 70
0
 10
0.0
 20
0.0
 30
0.0
  3
*Paper_Space
  1

  0
ENDBLK
  5
1D
100
AcDbEntity
 67
1
  8
0
100
AcDbBlockEnd
  0
BLOCK
  5
24
100
AcDbEntity
  8
0
100
AcDbBlockBegin
  2
*Paper_Space0
 70
0
 10
0.0
 20
0.0
 30
0.0
  3
*Paper_Space0
  1

  0
ENDBLK
  5
25
100
AcDbEntity
  8
0
100
AcDbBlockEnd
  0
ENDSEC
  0
SECTION
  2
ENTITIES
  0
LINE
  5
5D
100
AcDbEntity
  8
0
 62
256
370
-1
 48
1.0
  6
BYLAYER
100
AcDbLine
 10
30.2438095852466589
 20
4.4216812743001164
 30
0.0
 11
19.2438095852466589
 21
4.4216812743001164
 31
0.0
  0
LINE
  5
5E
100
AcDbEntity
  8
0
 62
256
370
-1
 48
1.0
  6
BYLAYER
100
AcDbLine
 10
41.6519638684193296
 20
10.2512759473970725
 30
0.0
 11
52.6519638684193296
 21
10.2512759473970689
 31
0.0
  0
LINE
  5
5F
100
AcDbEntity
  8
0
 62
256
370
-1
 48
1.0
  6
BYLAYER
100
AcDbLine
 10
58.165226385394277
 20
10.3483366983743288
 30
0.0
 11
69.165226385394277
 21
10.3483366983743252
 31
0.0
  0
LINE
  5
60
100
AcDbEntity
  8
0
 62
256
370
-1
 48
1.0
  6
BYLAYER
100
AcDbLine
 10
13.8338944617898534
 20
4.4788562743001172
 30
0.0
 11
2.8338944617898534
 21
4.4788562743001172
 31
0.0
  0
LINE
  5
61
100
AcDbEntity
  8
0
 62
256
370
-1
 48
1.0
  6
BYLAYER
100
AcDbLine
 10
64.8338944617898534
 20
35.4788562743001137
 30
0.0
 11
64.8338944617898534
 21
24.4788562743001137
 31
0.0
  0
LINE
  5
62
100
AcDbEntity
  8
0
 62
256
370
-1
 48
1.0
  6
BYLAYER
100
AcDbLine
 10
30.2438095852466589
 20
10.4216812743001128
 30
0.0
 11
19.2438095852466624
 21
10.4216812743001235
 31
0.0
  0
LINE
  5
63
100
AcDbEntity
  8
0
 62
256
370
-1
 48
1.0
  6
BYLAYER
100
AcDbLine
 10
41.6519638684193296
 20
4.2512759473970752
 30
0.0
 11
52.6519638684193296
 21
4.2512759473970636
 31
0.0
  0
LINE
  5
64
100
AcDbEntity
  8
0
 62
256
370
-1
 48
1.0
  6
BYLAYER
100
AcDbLine
 10
58.165226385394277
 20
4.3483366983743315
 30
0.0
 11
69.165226385394277
 21
4.3483366983743199
 31
0.0
  0
LINE
  5
65
100
AcDbEntity
  8
0
 62
256
370
-1
 48
1.0
  6
BYLAYER
100
AcDbLine
 10
13.8338944617898534
 20
10.4788562743001137
 30
0.0
 11
2.8338944617898605
 21
10.4788562743001243
 31
0.0
  0
LINE
  5
66
100
AcDbEntity
  8
0
 62
256
370
-1
 48
1.0
  6
BYLAYER
100
AcDbLine
 10
58.8338944617898605
 20
35.4788562743001208
 30
0.0
 11
58.8338944617898463
 21
24.4788562743001137
 31
0.0
  0
LINE
  5
67
100
AcDbEntity
  8
0
 62
256
370
-1
 48
1.0
  6
BYLAYER
100
AcDbLine
 10
16.2438095852466589
 20
8.9216812743001164
 30
0.0
 11
16.2438095852466589
 21
5.9216812743001164
 31
0.0
  0
LINE
  5
68
100
AcDbEntity
  8
0
 62
256
370
-1
 48
1.0
  6
BYLAYER
100
AcDbLine
 10
55.6519638684193296
 20
5.7512759473970707
 30
0.0
 11
55.6519638684193296
 21
8.7512759473970672
 31
0.0
  0
LINE
  5
69
100
AcDbEntity
  8
0
 62
256
370
-1
 48
1.0
  6
BYLAYER
100
AcDbLine
 10
72.165226385394277
 20
5.848336698374327
 30
0.0
 11
72.165226385394277
 21
8.8483366983743235
 31
0.0
  0
LINE
  5
6A
100
AcDbEntity
  8
0
 62
256
370
-1
 48
1.0
  6
BYLAYER
100
AcDbLine
 10
-0.1661055382101466
 20
8.9788562743001172
 30
0.0
 11
-0.1661055382101466
 21
5.9788562743001172
 31
0.0
  0
LINE
  5
6B
100
AcDbEntity
  8
0
 62
256
370
-1
 48
1.0
  6
BYLAYER
100
AcDbLine
 10
60.3338944617898605
 20
21.4788562743001137
 30
0.0
 11
63.3338944617898392
 21
21.4788562743001137
 31
0.0
  0
LINE
  5
6C
100
AcDbEntity
  8
0
 62
256
370
-1
 48
1.0
  6
BYLAYER
100
AcDbLine
 10
19.2438095852466624
 20
10.4216812743001235
 30
0.0
 11
16.2438095852466589
 21
8.9216812743001164
 31
0.0
  0
LINE
  5
6D
100
AcDbEntity
  8
0
 62
256
370
-1
 48
1.0
  6
BYLAYER
100
AcDbLine
 10
52.6519638684193296
 20
4.2512759473970636
 30
0.0
 11
55.6519638684193296
 21
5.7512759473970707
 31
0.0
  0
LINE
  5
6E
100
AcDbEntity
  8
0
 62
256
370
-1
 48
1.0
  6
BYLAYER
100
AcDbLine
 10
69.165226385394277
 20
4.3483366983743199
 30
0.0
 11
72.165226385394277
 21
5.848336698374327
 31
0.0
  0
LINE
  5
6F
100
AcDbEntity
  8
0
 62
256
370
-1
 48
1.0
  6
BYLAYER
100
AcDbLine
 10
2.8338944617898605
 20
10.4788562743001243
 30
0.0
 11
-0.1661055382101466
 21
8.9788562743001172
 31
0.0
  0
LINE
  5
70
100
AcDbEntity
  8
0
 62
256
370
-1
 48
1.0
  6
BYLAYER
100
AcDbLine
 10
58.8338944617898463
 20
24.4788562743001137
 30
0.0
 11
60.3338944617898605
 21
21.4788562743001137
 31
0.0
  0
LINE
  5
71
100
AcDbEntity
  8
0
 62
256
370
-1
 48
1.0
  6
BYLAYER
100
AcDbLine
 10
16.2438095852466589
 20
5.9216812743001164
 30
0.0
 11
19.2438095852466589
 21
4.4216812743001164
 31
0.0
  0
LINE
  5
72
100
AcDbEntity
  8
0
 62
256
370
-1
 48
1.0
  6
BYLAYER
100
AcDbLine
 10
55.6519638684193296
 20
8.7512759473970672
 30
0.0
 11
52.6519638684193296
 21
10.2512759473970689
 31
0.0
  0
LINE
  5
73
100
AcDbEntity
  8
0
 62
256
370
-1
 48
1.0
  6
BYLAYER
100
AcDbLine
 10
72.165226385394277
 20
8.8483366983743235
 30
0.0
 11
69.165226385394277
 21
10.3483366983743252
 31
0.0
  0
LINE
  5
74
100
AcDbEntity
  8
0
 62
256
370
-1
 48
1.0
  6
BYLAYER
100
AcDbLine
 10
-0.1661055382101466
 20
5.9788562743001172
 30
0.0
 11
2.8338944617898534
 21
4.4788562743001172
 31
0.0
  0
LINE
  5
75
100
AcDbEntity
  8
0
 62
256
370
-1
 48
1.0
  6
BYLAYER
100
AcDbLine
 10
63.3338944617898392
 20
21.4788562743001137
 30
0.0
 11
64.8338944617898534
 21
24.4788562743001137
 31
0.0
  0
LINE
  5
76
100
AcDbEntity
  8
0
 62
256
370
-1
 48
1.0
  6
BYLAYER
100
AcDbLine
 10
29.2438095852466589
 20
5.4216812743001164
 30
0.0
 11
29.2438095852466589
 21
9.4216812743001164
 31
0.0
  0
LINE
  5
77
100
AcDbEntity
  8
0
 62
256
370
-1
 48
1.0
  6
BYLAYER
100
AcDbLine
 10
42.6519638684193296
 20
9.2512759473970725
 30
0.0
 11
42.6519638684193296
 21
5.2512759473970707
 31
0.0
  0
LINE
  5
78
100
AcDbEntity
  8
0
 62
256
370
-1
 48
1.0
  6
BYLAYER
100
AcDbLine
 10
59.165226385394277
 20
9.3483366983743288
 30
0.0
 11
59.165226385394277
 21
5.348336698374327
 31
0.0
  0
LINE
  5
79
100
AcDbEntity
  8
0
 62
256
370
-1
 48
1.0
  6
BYLAYER
100
AcDbLine
 10
29.2438095852466589
 20
5.4216812743001164
 30
0.0
 11
29.2438095852466589
 21
9.4216812743001164
 31
0.0
  0
LINE
  5
7A
100
AcDbEntity
  8
0
 62
256
370
-1
 48
1.0
  6
BYLAYER
100
AcDbLine
 10
42.6519638684193296
 20
9.2512759473970725
 30
0.0
 11
42.6519638684193296
 21
5.2512759473970707
 31
0.0
  0
LINE
  5
7B
100
AcDbEntity
  8
0
 62
256
370
-1
 48
1.0
  6
BYLAYER
100
AcDbLine
 10
59.165226385394277
 20
9.3483366983743288
 30
0.0
 11
59.165226385394277
 21
5.348336698374327
 31
0.0
  0
LINE
  5
7C
100
AcDbEntity
  8
0
 62
256
370
-1
 48
1.0
  6
BYLAYER
100
AcDbLine
 10
12.8338944617898534
 20
5.4788562743001172
 30
0.0
 11
12.8338944617898534
 21
9.4788562743001172
 31
0.0
  0
LINE
  5
7D
100
AcDbEntity
  8
0
 62
256
370
-1
 48
1.0
  6
BYLAYER
100
AcDbLine
 10
12.8338944617898534
 20
5.4788562743001172
 30
0.0
 11
12.8338944617898534
 21
9.4788562743001172
 31
0.0
  0
LINE
  5
7E
100
AcDbEntity
  8
0
 62
256
370
-1
 48
1.0
  6
BYLAYER
100
AcDbLine
 10
63.8338944617898605
 20
34.4788562743001137
 30
0.0
 11
59.8338944617898534
 21
34.4788562743001137
 31
0.0
  0
LINE
  5
7F
100
AcDbEntity
  8
0
 62
256
370
-1
 48
1.0
  6
BYLAYER
100
AcDbLine
 10
63.8338944617898605
 20
34.4788562743001137
 30
0.0
 11
59.8338944617898534
 21
34.4788562743001137
 31
0.0
  0
LINE
  5
80
100
AcDbEntity
  8
0
 62
256
370
-1
 48
1.0
  6
BYLAYER
100
AcDbLine
 10
29.2438095852466589
 20
9.4216812743001164
 30
0.0
 11
27.2438095852466589
 21
9.4216812743001164
 31
0.0
  0
LINE
  5
81
100
AcDbEntity
  8
0
 62
256
370
-1
 48
1.0
  6
BYLAYER
100
AcDbLine
 10
42.6519638684193296
 20
5.2512759473970707
 30
0.0
 11
44.6519638684193296
 21
5.2512759473970707
 31
0.0
  0
LINE
  5
82
100
AcDbEntity
  8
0
 62
256
370
-1
 48
1.0
  6
BYLAYER
100
AcDbLine
 10
59.165226385394277
 20
5.348336698374327
 30
0.0
 11
61.165226385394277
 21
5.348336698374327
 31
0.0
  0
LINE
  5
83
100
AcDbEntity
  8
0
 62
256
370
-1
 48
1.0
  6
BYLAYER
100
AcDbLine
 10
29.2438095852466589
 20
9.4216812743001164
 30
0.0
 11
27.2438095852466589
 21
9.4216812743001164
 31
0.0
  0
LINE
  5
84
100
AcDbEntity
  8
0
 62
256
370
-1
 48
1.0
  6
BYLAYER
100
AcDbLine
 10
42.6519638684193296
 20
5.2512759473970707
 30
0.0
 11
44.6519638684193296
 21
5.2512759473970707
 31
0.0
  0
LINE
  5
85
100
AcDbEntity
  8
0
 62
256
370
-1
 48
1.0
  6
BYLAYER
100
AcDbLine
 10
59.165226385394277
 20
5.348336698374327
 30
0.0
 11
61.165226385394277
 21
5.348336698374327
 31
0.0
  0
LINE
  5
86
100
AcDbEntity
  8
0
 62
256
370
-1
 48
1.0
  6
BYLAYER
100
AcDbLine
 10
12.8338944617898534
 20
9.4788562743001172
 30
0.0
 11
10.8338944617898534
 21
9.4788562743001172
 31
0.0
  0
LINE
  5
87
100
AcDbEntity
  8
0
 62
256
370
-1
 48
1.0
  6
BYLAYER
100
AcDbLine
 10
12.8338944617898534
 20
9.4788562743001172
 30
0.0
 11
10.8338944617898534
 21
9.4788562743001172
 31
0.0
  0
LINE
  5
88
100
AcDbEntity
  8
0
 62
256
370
-1
 48
1.0
  6
BYLAYER
100
AcDbLine
 10
59.8338944617898534
 20
34.4788562743001137
 30
0.0
 11
59.8338944617898534
 21
32.4788562743001137
 31
0.0
  0
LINE
  5
89
100
AcDbEntity
  8
0
 62
256
370
-1
 48
1.0
  6
BYLAYER
100
AcDbLine
 10
59.8338944617898534
 20
34.4788562743001137
 30
0.0
 11
59.8338944617898534
 21
32.4788562743001137
 31
0.0
  0
LINE
  5
8A
100
AcDbEntity
  8
0
 62
256
370
-1
 48
1.0
  6
BYLAYER
100
AcDbLine
 10
27.2438095852466589
 20
9.4216812743001164
 30
0.0
 11
27.2438095852466589
 21
5.4216812743001164
 31
0.0
  0
LINE
  5
8B
100
AcDbEntity
  8
0
 62
256
370
-1
 48
1.0
  6
BYLAYER
100
AcDbLine
 10
44.6519638684193296
 20
5.2512759473970707
 30
0.0
 11
44.6519638684193296
 21
9.2512759473970725
 31
0.0
  0
LINE
  5
8C
100
AcDbEntity
  8
0
 62
256
370
-1
 48
1.0
  6
BYLAYER
100
AcDbLine
 10
61.165226385394277
 20
5.348336698374327
 30
0.0
 11
61.165226385394277
 21
9.3483366983743288
 31
0.0
  0
LINE
  5
8D
100
AcDbEntity
  8
0
 62
256
370
-1
 48
1.0
  6
BYLAYER
100
AcDbLine
 10
27.2438095852466589
 20
9.4216812743001164
 30
0.0
 11
27.2438095852466589
 21
5.4216812743001164
 31
0.0
  0
LINE
  5
8E
100
AcDbEntity
  8
0
 62
256
370
-1
 48
1.0
  6
BYLAYER
100
AcDbLine
 10
44.6519638684193296
 20
5.2512759473970707
 30
0.0
 11
44.6519638684193296
 21
9.2512759473970725
 31
0.0
  0
LINE
  5
8F
100
AcDbEntity
  8
0
 62
256
370
-1
 48
1.0
  6
BYLAYER
100
AcDbLine
 10
61.165226385394277
 20
5.348336698374327
 30
0.0
 11
61.165226385394277
 21
9.3483366983743288
 31
0.0
  0
LINE
  5
90
100
AcDbEntity
  8
0
 62
256
370
-1
 48
1.0
  6
BYLAYER
100
AcDbLine
 10
10.8338944617898534
 20
9.4788562743001172
 30
0.0
 11
10.8338944617898534
 21
5.4788562743001172
 31
0.0
  0
LINE
  5
91
100
AcDbEntity
  8
0
 62
256
370
-1
 48
1.0
  6
BYLAYER
100
AcDbLine
 10
10.8338944617898534
 20
9.4788562743001172
 30
0.0
 11
10.8338944617898534
 21
5.4788562743001172
 31
0.0
  0
LINE
  5
92
100
AcDbEntity
  8
0
 62
256
370
-1
 48
1.0
  6
BYLAYER
100
AcDbLine
 10
59.8338944617898534
 20
32.4788562743001137
 30
0.0
 11
63.8338944617898534
 21
32.4788562743001137
 31
0.0
  0
LINE
  5
93
100
AcDbEntity
  8
0
 62
256
370
-1
 48
1.0
  6
BYLAYER
100
AcDbLine
 10
59.8338944617898534
 20
32.4788562743001137
 30
0.0
 11
63.8338944617898534
 21
32.4788562743001137
 31
0.0
  0
LINE
  5
94
100
AcDbEntity
  8
0
 62
256
370
-1
 48
1.0
  6
BYLAYER
100
AcDbLine
 10
27.2438095852466589
 20
5.4216812743001164
 30
0.0
 11
29.2438095852466589
 21
5.4216812743001164
 31
0.0
  0
LINE
  5
95
100
AcDbEntity
  8
0
 62
256
370
-1
 48
1.0
  6
BYLAYER
100
AcDbLine
 10
44.6519638684193296
 20
9.2512759473970725
 30
0.0
 11
42.6519638684193296
 21
9.2512759473970725
 31
0.0
  0
LINE
  5
96
100
AcDbEntity
  8
0
 62
256
370
-1
 48
1.0
  6
BYLAYER
100
AcDbLine
 10
61.165226385394277
 20
9.3483366983743288
 30
0.0
 11
59.165226385394277
 21
9.3483366983743288
 31
0.0
  0
LINE
  5
97
100
AcDbEntity
  8
0
 62
256
370
-1
 48
1.0
  6
BYLAYER
100
AcDbLine
 10
27.2438095852466589
 20
5.4216812743001164
 30
0.0
 11
29.2438095852466589
 21
5.4216812743001164
 31
0.0
  0
LINE
  5
98
100
AcDbEntity
  8
0
 62
256
370
-1
 48
1.0
  6
BYLAYER
100
AcDbLine
 10
44.6519638684193296
 20
9.2512759473970725
 30
0.0
 11
42.6519638684193296
 21
9.2512759473970725
 31
0.0
  0
LINE
  5
99
100
AcDbEntity
  8
0
 62
256
370
-1
 48
1.0
  6
BYLAYER
100
AcDbLine
 10
61.165226385394277
 20
9.3483366983743288
 30
0.0
 11
59.165226385394277
 21
9.3483366983743288
 31
0.0
  0
LINE
  5
9A
100
AcDbEntity
  8
0
 62
256
370
-1
 48
1.0
  6
BYLAYER
100
AcDbLine
 10
10.8338944617898534
 20
5.4788562743001172
 30
0.0
 11
12.8338944617898534
 21
5.4788562743001172
 31
0.0
  0
LINE
  5
9B
100
AcDbEntity
  8
0
 62
256
370
-1
 48
1.0
  6
BYLAYER
100
AcDbLine
 10
10.8338944617898534
 20
5.4788562743001172
 30
0.0
 11
12.8338944617898534
 21
5.4788562743001172
 31
0.0
  0
LINE
  5
9C
100
AcDbEntity
  8
0
 62
256
370
-1
 48
1.0
  6
BYLAYER
100
AcDbLine
 10
63.8338944617898534
 20
32.4788562743001137
 30
0.0
 11
63.8338944617898605
 21
34.4788562743001137
 31
0.0
  0
LINE
  5
9D
100
AcDbEntity
  8
0
 62
256
370
-1
 48
1.0
  6
BYLAYER
100
AcDbLine
 10
63.8338944617898534
 20
32.4788562743001137
 30
0.0
 11
63.8338944617898605
 21
34.4788562743001137
 31
0.0
  0
LINE
  5
9E
100
AcDbEntity
  8
0
 62
256
370
-1
 48
1.0
  6
BYLAYER
100
AcDbLine
 10
29.2438095852466589
 20
5.4216812743001164
 30
0.0
 11
29.2438095852466589
 21
5.4216812743001164
 31
0.0
  0
LINE
  5
9F
100
AcDbEntity
  8
0
 62
256
370
-1
 48
1.0
  6
BYLAYER
100
AcDbLine
 10
42.6519638684193296
 20
9.2512759473970725
 30
0.0
 11
42.6519638684193296
 21
9.2512759473970725
 31
0.0
  0
LINE
  5
A0
100
AcDbEntity
  8
0
 62
256
370
-1
 48
1.0
  6
BYLAYER
100
AcDbLine
 10
59.165226385394277
 20
9.3483366983743288
 30
0.0
 11
59.165226385394277
 21
9.3483366983743288
 31
0.0
  0
LINE
  5
A1
100
AcDbEntity
  8
0
 62
256
370
-1
 48
1.0
  6
BYLAYER
100
AcDbLine
 10
29.2438095852466589
 20
5.4216812743001164
 30
0.0
 11
29.2438095852466589
 21
5.4216812743001164
 31
0.0
  0
LINE
  5
A2
100
AcDbEntity
  8
0
 62
256
370
-1
 48
1.0
  6
BYLAYER
100
AcDbLine
 10
42.6519638684193296
 20
9.2512759473970725
 30
0.0
 11
42.6519638684193296
 21
9.2512759473970725
 31
0.0
  0
LINE
  5
A3
100
AcDbEntity
  8
0
 62
256
370
-1
 48
1.0
  6
BYLAYER
100
AcDbLine
 10
59.165226385394277
 20
9.3483366983743288
 30
0.0
 11
59.165226385394277
 21
9.3483366983743288
 31
0.0
  0
LINE
  5
A4
100
AcDbEntity
  8
0
 62
256
370
-1
 48
1.0
  6
BYLAYER
100
AcDbLine
 10
12.8338944617898534
 20
5.4788562743001172
 30
0.0
 11
12.8338944617898534
 21
5.4788562743001172
 31
0.0
  0
LINE
  5
A5
100
AcDbEntity
  8
0
 62
256
370
-1
 48
1.0
  6
BYLAYER
100
AcDbLine
 10
12.8338944617898534
 20
5.4788562743001172
 30
0.0
 11
12.8338944617898534
 21
5.4788562743001172
 31
0.0
  0
LINE
  5
A6
100
AcDbEntity
  8
0
 62
256
370
-1
 48
1.0
  6
BYLAYER
100
AcDbLine
 10
63.8338944617898605
 20
34.4788562743001137
 30
0.0
 11
63.8338944617898605
 21
34.4788562743001137
 31
0.0
  0
LINE
  5
A7
100
AcDbEntity
  8
0
 62
256
370
-1
 48
1.0
  6
BYLAYER
100
AcDbLine
 10
63.8338944617898605
 20
34.4788562743001137
 30
0.0
 11
63.8338944617898605
 21
34.4788562743001137
 31
0.0
  0
LINE
  5
A8
100
AcDbEntity
  8
0
 62
256
370
-1
 48
1.0
  6
BYLAYER
100
AcDbLine
 10
30.2438095852466589
 20
4.4216812743001164
 30
0.0
 11
31.2438095852466589
 21
5.4216812743001164
 31
0.0
  0
LINE
  5
A9
100
AcDbEntity
  8
0
 62
256
370
-1
 48
1.0
  6
BYLAYER
100
AcDbLine
 10
41.6519638684193296
 20
10.2512759473970725
 30
0.0
 11
40.6519638684193296
 21
9.2512759473970725
 31
0.0
  0
LINE
  5
AA
100
AcDbEntity
  8
0
 62
256
370
-1
 48
1.0
  6
BYLAYER
100
AcDbLine
 10
58.165226385394277
 20
10.3483366983743288
 30
0.0
 11
57.165226385394277
 21
9.3483366983743288
 31
0.0
  0
LINE
  5
AB
100
AcDbEntity
  8
0
 62
256
370
-1
 48
1.0
  6
BYLAYER
100
AcDbLine
 10
13.8338944617898534
 20
4.4788562743001172
 30
0.0
 11
14.8338944617898534
 21
5.4788562743001172
 31
0.0
  0
LINE
  5
AC
100
AcDbEntity
  8
0
 62
256
370
-1
 48
1.0
  6
BYLAYER
100
AcDbLine
 10
64.8338944617898534
 20
35.4788562743001137
 30
0.0
 11
63.8338944617898534
 21
36.4788562743001137
 31
0.0
  0
LINE
  5
AD
100
AcDbEntity
  8
0
 62
256
370
-1
 48
1.0
  6
BYLAYER
100
AcDbLine
 10
31.2438095852466589
 20
5.4216812743001164
 30
0.0
 11
31.2438095852466589
 21
9.4216812743001128
 31
0.0
  0
LINE
  5
AE
100
AcDbEntity
  8
0
 62
256
370
-1
 48
1.0
  6
BYLAYER
100
AcDbLine
 10
40.6519638684193296
 20
9.2512759473970725
 30
0.0
 11
40.6519638684193296
 21
5.251275947397076
 31
0.0
  0
LINE
  5
AF
100
AcDbEntity
  8
0
 62
256
370
-1
 48
1.0
  6
BYLAYER
100
AcDbLine
 10
57.165226385394277
 20
9.3483366983743288
 30
0.0
 11
57.165226385394277
 21
5.3483366983743323
 31
0.0
  0
LINE
  5
B0
100
AcDbEntity
  8
0
 62
256
370
-1
 48
1.0
  6
BYLAYER
100
AcDbLine
 10
14.8338944617898534
 20
5.4788562743001172
 30
0.0
 11
14.8338944617898534
 21
9.4788562743001137
 31
0.0
  0
LINE
  5
B1
100
AcDbEntity
  8
0
 62
256
370
-1
 48
1.0
  6
BYLAYER
100
AcDbLine
 10
63.8338944617898534
 20
36.4788562743001137
 30
0.0
 11
59.8338944617898534
 21
36.4788562743001137
 31
0.0
  0
LINE
  5
B2
100
AcDbEntity
  8
0
 62
256
370
-1
 48
1.0
  6
BYLAYER
100
AcDbLine
 10
31.2438095852466589
 20
9.4216812743001128
 30
0.0
 11
30.2438095852466589
 21
10.4216812743001128
 31
0.0
  0
LINE
  5
B3
100
AcDbEntity
  8
0
 62
256
370
-1
 48
1.0
  6
BYLAYER
100
AcDbLine
 10
40.6519638684193296
 20
5.251275947397076
 30
0.0
 11
41.6519638684193296
 21
4.2512759473970752
 31
0.0
  0
LINE
  5
B4
100
AcDbEntity
  8
0
 62
256
370
-1
 48
1.0
  6
BYLAYER
100
AcDbLine
 10
57.165226385394277
 20
5.3483366983743323
 30
0.0
 11
58.165226385394277
 21
4.3483366983743315
 31
0.0
  0
LINE
  5
B5
100
AcDbEntity
  8
0
 62
256
370
-1
 48
1.0
  6
BYLAYER
100
AcDbLine
 10
14.8338944617898534
 20
9.4788562743001137
 30
0.0
 11
13.8338944617898534
 21
10.4788562743001137
 31
0.0
  0
LINE
  5
B6
100
AcDbEntity
  8
0
 62
256
370
-1
 48
1.0
  6
BYLAYER
100
AcDbLine
 10
59.8338944617898534
 20
36.4788562743001137
 30
0.0
 11
58.8338944617898605
 21
35.4788562743001208
 31
0.0
  0
LINE
  5
B7
100
AcDbEntity
  8
0
 62
256
370
-1
 48
1.0
  6
BYLAYER
100
AcDbLine
 10
30.2438095852466589
 20
10.4216812743001128
 30
0.0
 11
30.2438095852466589
 21
10.4216812743001128
 31
0.0
  0
LINE
  5
B8
100
AcDbEntity
  8
0
 62
256
370
-1
 48
1.0
  6
BYLAYER
100
AcDbLine
 10
41.6519638684193296
 20
4.2512759473970752
 30
0.0
 11
41.6519638684193296
 21
4.2512759473970752
 31
0.0
  0
LINE
  5
B9
100
AcDbEntity
  8
0
 62
256
370
-1
 48
1.0
  6
BYLAYER
100
AcDbLine
 10
58.165226385394277
 20
4.3483366983743315
 30
0.0
 11
58.165226385394277
 21
4.3483366983743315
 31
0.0
  0
LINE
  5
BA
100
AcDbEntity
  8
0
 62
256
370
-1
 48
1.0
  6
BYLAYER
100
AcDbLine
 10
13.8338944617898534
 20
10.4788562743001137
 30
0.0
 11
13.8338944617898534
 21
10.4788562743001137
 31
0.0
  0
LINE
  5
BB
100
AcDbEntity
  8
0
 62
256
370
-1
 48
1.0
  6
BYLAYER
100
AcDbLine
 10
58.8338944617898605
 20
35.4788562743001208
 30
0.0
 11
58.8338944617898605
 21
35.4788562743001208
 31
0.0
  0
CIRCLE
  5
BC
100
AcDbEntity
  8
0
 62
256
370
-1
 48
1.0
  6
BYLAYER
100
AcDbCircle
 10
18.2438095852466589
 20
7.4216812743001164
 30
0.0
 40
1.0
  0
CIRCLE
  5
BD
100
AcDbEntity
  8
0
 62
256
370
-1
 48
1.0
  6
BYLAYER
100
AcDbCircle
 10
53.6519638684193296
 20
7.2512759473970689
 30
0.0
 40
1.0
  0
CIRCLE
  5
BE
100
AcDbEntity
  8
0
 62
256
370
-1
 48
1.0
  6
BYLAYER
100
AcDbCircle
 10
70.165226385394277
 20
7.3483366983743252
 30
0.0
 40
1.0
  0
CIRCLE
  5
BF
100
AcDbEntity
  8
0
 62
256
370
-1
 48
1.0
  6
BYLAYER
100
AcDbCircle
 10
1.8338944617898534
 20
7.4788562743001172
 30
0.0
 40
1.0
  0
CIRCLE
  5
C0
100
AcDbEntity
  8
0
 62
256
370
-1
 48
1.0
  6
BYLAYER
100
AcDbCircle
 10
61.8338944617898534
 20
23.4788562743001137
 30
0.0
 40
1.0
  0
CIRCLE
  5
C1
100
AcDbEntity
  8
0
 62
256
370
-1
 48
1.0
  6
BYLAYER
100
AcDbCircle
 10
51.8338944617898534
 20
33.4788562743001137
 30
0.0
 40
1.0
  0
CIRCLE
  5
C2
100
AcDbEntity
  8
0
 62
256
370
-1
 48
1.0
  6
BYLAYER
100
AcDbCircle
 10
28.2438095852466589
 20
7.4216812743001164
 30
0.0
 40
6.5
  0
CIRCLE
  5
C3
100
AcDbEntity
  8
0
 62
256
370
-1
 48
1.0
  6
BYLAYER
100
AcDbCircle
 10
43.6519638684193296
 20
7.2512759473970707
 30
0.0
 40
6.5
  0
CIRCLE
  5
C4
100
AcDbEntity
  8
0
 62
256
370
-1
 48
1.0
  6
BYLAYER
100
AcDbCircle
 10
60.165226385394277
 20
7.348336698374327
 30
0.0
 40
6.5
  0
CIRCLE
  5
C5
100
AcDbEntity
  8
0
 62
256
370
-1
 48
1.0
  6
BYLAYER
100
AcDbCircle
 10
11.8338944617898534
 20
7.4788562743001172
 30
0.0
 40
6.5
  0
LINE
  5
C6
100
AcDbEntity
  8
0
 62
256
370
-1
 48
1.0
  6
BYLAYER
100
AcDbLine
 10
30.7438095852466589
 20
4.9216812743001164
 30
0.0
 11
25.663809585246657
 21
4.9216812743001199
 31
0.0
  0
LINE
  5
C7
100
AcDbEntity
  8
0
 62
256
370
-1
 48
1.0
  6
BYLAYER
100
AcDbLine
 10
41.1519638684193296
 20
9.7512759473970707
 30
0.0
 11
46.231963868419335
 21
9.7512759473970672
 31
0.0
  0
LINE
  5
C8
100
AcDbEntity
  8
0
 62
256
370
-1
 48
1.0
  6
BYLAYER
100
AcDbLine
 10
57.665226385394277
 20
9.8483366983743306
 30
0.0
 11
62.7452263853942824
 21
9.8483366983743235
 31
0.0
  0
LINE
  5
C9
100
AcDbEntity
  8
0
 62
256
370
-1
 48
1.0
  6
BYLAYER
100
AcDbLine
 10
14.3338944617898534
 20
4.9788562743001172
 30
0.0
 11
9.2538944617898551
 21
4.9788562743001208
 31
0.0
  0
LINE
  5
CA
100
AcDbEntity
  8
0
 62
256
370
-1
 48
1.0
  6
BYLAYER
100
AcDbLine
 10
2.7126512618192891
 20
24.1234203494547756
 30
0.0
 11
2.7126512618192891
 21
41.1234203494547756
 31
0.0
  0
LINE
  5
CB
100
AcDbEntity
  8
0
 62
256
370
-1
 48
1.0
  6
BYLAYER
100
AcDbLine
 10
2.7126512618192891
 20
24.1234203494547756
 30
0.0
 11
45.7126512618192891
 21
24.1234203494547756
 31
0.0
  0
LINE
  5
CC
100
AcDbEntity
  8
0
 62
256
370
-1
 48
1.0
  6
BYLAYER
100
AcDbLine
 10
2.7126512618192891
 20
41.1234203494547756
 30
0.0
 11
45.7126512618192891
 21
41.1234203494547756
 31
0.0
  0
LINE
  5
CD
100
AcDbEntity
  8
0
 62
256
370
-1
 48
1.0
  6
BYLAYER
100
AcDbLine
 10
45.7126512618192891
 20
24.1234203494547756
 30
0.0
 11
45.7126512618192891
 21
41.1234203494547756
 31
0.0
  0
LINE
  5
CE
100
AcDbEntity
  8
0
 62
256
370
-1
 48
1.0
  6
BYLAYER
100
AcDbLine
 10
0.7126512618192891
 20
29.1234203494547756
 30
0.0
 11
0.7126512618192891
 21
36.1234203494547756
 31
0.0
  0
LINE
  5
CF
100
AcDbEntity
  8
0
 62
256
370
-1
 48
1.0
  6
BYLAYER
100
AcDbLine
 10
0.7126512618192891
 20
29.1234203494547756
 30
0.0
 11
2.7126512618192891
 21
29.1234203494547756
 31
0.0
  0
LINE
  5
D0
100
AcDbEntity
  8
0
 62
256
370
-1
 48
1.0
  6
BYLAYER
100
AcDbLine
 10
0.7126512618192891
 20
36.1234203494547756
 30
0.0
 11
2.7126512618192891
 21
36.1234203494547756
 31
0.0
  0
LINE
  5
D1
100
AcDbEntity
  8
0
 62
256
370
-1
 48
1.0
  6
BYLAYER
100
AcDbLine
 10
2.7126512618192891
 20
29.1234203494547756
 30
0.0
 11
2.7126512618192891
 21
36.1234203494547756
 31
0.0
  0
LINE
  5
D2
100
AcDbEntity
  8
0
 62
256
370
-1
 48
1.0
  6
BYLAYER
100
AcDbLine
 10
2.7126512618192891
 20
29.1234203494547756
 30
0.0
 11
2.7126512618192891
 21
36.1234203494547756
 31
0.0
  0
MTEXT
  5
D3
100
AcDbEntity
  8
0
 62
256
370
-1
 48
1.0
  6
BYLAYER
100
AcDbMText
 10
15.7126512618192891
 20
34.1234203494547756
 30
0.0
 40
1.0
 41
0.0
 71
1
 72
1
  1
\fArial|b1|i0|c0|p0;\H2;Arduino Nano
  7
textstyle1
 50
0.0
 73
2
 44
1.0
  0
CIRCLE
  5
D4
100
AcDbEntity
  8
0
 62
256
370
-1
 48
1.0
  6
BYLAYER
100
AcDbCircle
 10
11.8338944617898534
 20
17.4788562743001137
 30
0.0
 40
1.0
  0
CIRCLE
  5
D5
100
AcDbEntity
  8
0
 62
256
370
-1
 48
1.0
  6
BYLAYER
100
AcDbCircle
 10
28.260829476111887
 20
17.4362775403037347
 30
0.0
 40
1.0
  0
CIRCLE
  5
D6
100
AcDbEntity
  8
0
 62
256
370
-1
 48
1.0
  6
BYLAYER
100
AcDbCircle
 10
43.3982180220652651
 20
17.4697673379717742
 30
0.0
 40
1.0
  0
CIRCLE
  5
D7
100
AcDbEntity
  8
0
 62
256
370
-1
 48
1.0
  6
BYLAYER
100
AcDbCircle
 10
59.8338944617898534
 20
17.4788562743001137
 30
0.0
 40
1.0
  0
LINE
  5
D8
100
AcDbEntity
  8
0
 62
256
370
-1
 48
1.0
  6
BYLAYER
100
AcDbLine
 10
2.9971008171489046
 20
43.3024690932309682
 30
0.0
 11
47.9971008171489046
 21
43.3024690932309682
 31
0.0
  0
LINE
  5
D9
100
AcDbEntity
  8
0
 62
256
370
-1
 48
1.0
  6
BYLAYER
100
AcDbLine
 10
47.9971008171489046
 20
43.3024690932309682
 30
0.0
 11
47.9971008171489046
 21
55.8024690932309682
 31
0.0
  0
LINE
  5
DA
100
AcDbEntity
  8
0
 62
256
370
-1
 48
1.0
  6
BYLAYER
100
AcDbLine
 10
47.9971008171489046
 20
55.8024690932309682
 30
0.0
 11
2.9971008171489046
 21
55.8024690932309682
 31
0.0
  0
LINE
  5
DB
100
AcDbEntity
  8
0
 62
256
370
-1
 48
1.0
  6
BYLAYER
100
AcDbLine
 10
2.9971008171489046
 20
55.8024690932309682
 30
0.0
 11
2.9971008171489046
 21
43.3024690932309682
 31
0.0
  0
MTEXT
  5
DC
100
AcDbEntity
  8
0
 62
256
370
-1
 48
1.0
  6
BYLAYER
100
AcDbMText
 10
20.8315008171489069
 20
50.9348690932309722
 30
0.0
 40
1.0
 41
0.0
 71
1
 72
1
  1
\fArial|b1|i0|c0|p0;\H2;Battery
  7
textstyle2
 50
0.0
 73
2
 44
1.0
  0
LINE
  5
DD
100
AcDbEntity
  8
0
 62
256
370
-1
 48
1.0
  6
BYLAYER
100
AcDbLine
 10
56.8338944617898534
 20
28.4788562743001137
 30
0.0
 11
66.8338944617898534
 21
28.4788562743001137
 31
0.0
  0
LINE
  5
DE
100
AcDbEntity
  8
0
 62
256
370
-1
 48
1.0
  6
BYLAYER
100
AcDbLine
 10
66.8338944617898534
 20
28.4788562743001137
 30
0.0
 11
66.8338944617898534
 21
38.4788562743001137
 31
0.0
  0
LINE
  5
DF
100
AcDbEntity
  8
0
 62
256
370
-1
 48
1.0
  6
BYLAYER
100
AcDbLine
 10
66.8338944617898534
 20
38.4788562743001137
 30
0.0
 11
56.8338944617898534
 21
38.4788562743001137
 31
0.0
  0
LINE
  5
E0
100
AcDbEntity
  8
0
 62
256
370
-1
 48
1.0
  6
BYLAYER
100
AcDbLine
 10
56.8338944617898534
 20
38.4788562743001137
 30
0.0
 11
56.8338944617898534
 21
28.4788562743001137
 31
0.0
  0
LINE
  5
E1
100
AcDbEntity
  8
0
 62
256
370
-1
 48
1.0
  6
BYLAYER
100
AcDbLine
 10
55.9293362179181273
 20
31.0036081323894877
 30
0.0
 11
55.9293362179181273
 21
36.0836081323894859
 31
0.0
  0
LINE
  5
E2
100
AcDbEntity
  8
0
 62
256
370
-1
 48
1.0
  6
BYLAYER
100
AcDbLine
 10
56.0000000000000071
 20
50.0799999999999983
 30
0.0
 11
56.0
 21
45.0
 31
0.0
  0
LINE
  5
E3
100
AcDbEntity
  8
0
 62
256
370
-1
 48
1.0
  6
BYLAYER
100
AcDbLine
 10
49.0
 20
37.9999999999999929
 30
0.0
 11
55.0
 21
38.0
 31
0.0
  0
LINE
  5
E4
100
AcDbEntity
  8
0
 62
256
370
-1
 48
1.0
  6
BYLAYER
100
AcDbLine
 10
55.0
 20
38.0
 30
0.0
 11
55.0000000000000071
 21
56.9999999999999929
 31
0.0
  0
LINE
  5
E5
100
AcDbEntity
  8
0
 62
256
370
-1
 48
1.0
  6
BYLAYER
100
AcDbLine
 10
55.0000000000000071
 20
56.9999999999999929
 30
0.0
 11
49.0000000000000142
 21
56.9999999999999929
 31
0.0
  0
LINE
  5
E6
100
AcDbEntity
  8
0
 62
256
370
-1
 48
1.0
  6
BYLAYER
100
AcDbLine
 10
49.0000000000000142
 20
56.9999999999999929
 30
0.0
 11
49.0
 21
37.9999999999999929
 31
0.0
  0
MTEXT
  5
E7
100
AcDbEntity
  8
0
 62
256
370
-1
 48
1.0
  6
BYLAYER
100
AcDbMText
 10
51.0
 20
40.0
 30
0.0
 40
1.0
 41
0.0
 71
1
 72
1
  1
\fArial|b1|i0|c0|p0;\H2;Transmitter
  7
textstyle0
 50
90.0
 73
2
 44
1.0
  0
LINE
  5
E8
100
AcDbEntity
  8
0
 62
256
370
-1
 48
1.0
  6
BYLAYER
100
AcDbLine
 10
36.0
 20
20.0
 30
0.0
 11
36.0
 21
22.5399999999999991
 31
0.0
  0
LINE
  5
E9
100
AcDbEntity
  8
0
 62
256
370
-1
 48
1.0
  6
BYLAYER
100
AcDbLine
 10
0.0
 20
0.0
 30
0.0
 11
72.0
 21
0.0
 31
0.0
  0
LINE
  5
EA
100
AcDbEntity
  8
0
 62
256
370
-1
 48
1.0
  6
BYLAYER
100
AcDbLine
 10
72.0
 20
0.0
 30
0.0
 11
72.0
 21
58.0
 31
0.0
  0
LINE
  5
EB
100
AcDbEntity
  8
0
 62
256
370
-1
 48
1.0
  6
BYLAYER
100
AcDbLine
 10
72.0
 20
58.0
 30
0.0
 11
0.0
 21
58.0
 31
0.0
  0
LINE
  5
EC
100
AcDbEntity
  8
0
 62
256
370
-1
 48
1.0
  6
BYLAYER
100
AcDbLine
 10
0.0
 20
58.0
 30
0.0
 11
0.0
 21
0.0
 31
0.0
  0
MTEXT
  5
ED
100
AcDbEntity
  8
0
 62
256
370
-1
 48
1.0
  6
BYLAYER
100
AcDbMText
 10
30.2855999999999881
 20
-1.9575999999999993
 30
0.0
 40
1.0
 41
0.0
 71
1
 72
1
  1
\fArial|b1|i0|c0|p0;\H2;72 x 58 mm
  7
textstyle3
 50
0.0
 73
2
 44
1.0
  0
ENDSEC
  0
SECTION
  2
OBJECTS
  0
DICTIONARY
  5
C
100
AcDbDictionary
280
0
281
1
  3
ACAD_GROUP
350
D
  3
ACAD_LAYOUT
350
1A
  3
ACAD_MLINESTYLE
350
17
  3
ACAD_PLOTSETTINGS
350
19
  3
ACAD_PLOTSTYLENAME
350
E
  3
AcDbVariableDictionary
350
EE
  3
QCAD_OBJECTS
350
EF
  0
DICTIONARY
  5
D
100
AcDbDictionary
280
0
281
1
  0
ACDBDICTIONARYWDFLT
  5
E
100
AcDbDictionary
281
1
  3
Normal
350
F
100
AcDbDictionaryWithDefault
340
F
  0
ACDBPLACEHOLDER
  5
F
  0
DICTIONARY
  5
17
100
AcDbDictionary
280
0
281
1
  3
Standard
350
18
  0
MLINESTYLE
  5
18
100
AcDbMlineStyle
  2
STANDARD
 70
0
  3

 62
256
 51
90.0
 52
90.0
 71
2
 49
0.5
 62
256
  6
BYLAYER
 49
-0.5
 62
256
  6
BYLAYER
  0
DICTIONARY
  5
19
100
AcDbDictionary
280
0
281
1
  0
DICTIONARY
  5
1A
100
AcDbDictionary
281
1
  3
Layout1
350
1E
  3
Layout2
350
26
  3
Model
350
22
  0
LAYOUT
  5
1E
100
AcDbPlotSettings
  1

  2
none_device
  4

  6

 40
0.0
 41
0.0
 42
0.0
 43
0.0
 44
0.0
 45
0.0
 46
0.0
 47
0.0
 48
0.0
 49
0.0
140
0.0
141
0.0
142
1.0
143
1.0
 70
688
 72
0
 73
0
 74
5
  7

 75
16
147
1.0
148
0.0
149
0.0
100
AcDbLayout
  1
Layout1
 70
1
 71
1
 10
0.0
 20
0.0
 11
420.0
 21
297.0
 12
0.0
 22
0.0
 32
0.0
 14
100000000000000000000.0
 24
100000000000000000000.0
 34
100000000000000000000.0
 15
-100000000000000000000.0
 25
-100000000000000000000.0
 35
-100000000000000000000.0
146
0.0
 13
0.0
 23
0.0
 33
0.0
 16
1.0
 26
0.0
 36
0.0
 17
0.0
 27
1.0
 37
0.0
 76
0
330
1B
  0
LAYOUT
  5
22
100
AcDbPlotSettings
  1

  2
none_device
  4

  6

 40
0.0
 41
0.0
 42
0.0
 43
0.0
 44
0.0
 45
0.0
 46
0.0
 47
0.0
 48
0.0
 49
0.0
140
0.0
141
0.0
142
1.0
143
1.0
 70
1712
 72
0
 73
0
 74
0
  7

 75
0
147
1.0
148
0.0
149
0.0
100
AcDbLayout
  1
Model
 70
1
 71
0
 10
0.0
 20
0.0
 11
12.0
 21
9.0
 12
0.0
 22
0.0
 32
0.0
 14
0.0
 24
0.0
 34
0.0
 15
0.0
 25
0.0
 35
0.0
146
0.0
 13
0.0
 23
0.0
 33
0.0
 16
1.0
 26
0.0
 36
0.0
 17
0.0
 27
1.0
 37
0.0
 76
0
330
1F
  0
LAYOUT
  5
26
100
AcDbPlotSettings
  1

  2
none_device
  4

  6

 40
0.0
 41
0.0
 42
0.0
 43
0.0
 44
0.0
 45
0.0
 46
0.0
 47
0.0
 48
0.0
 49
0.0
140
0.0
141
0.0
142
1.0
143
1.0
 70
688
 72
0
 73
0
 74
5
  7

 75
16
147
1.0
148
0.0
149
0.0
100
AcDbLayout
  1
Layout2
 70
1
 71
2
 10
0.0
 20
0.0
 11
12.0
 21
9.0
 12
0.0
 22
0.0
 32
0.0
 14
0.0
 24
0.0
 34
0.0
 15
0.0
 25
0.0
 35
0.0
146
0.0
 13
0.0
 23
0.0
 33
0.0
 16
1.0
 26
0.0
 36
0.0
 17
0.0
 27
1.0
 37
0.0
 76
0
330
23
  0
DICTIONARY
  5
EE
100
AcDbDictionary
281
1
  3
DIMASSOC
350
F1
  3
HIDETEXT
350
F0
  0
DICTIONARYVAR
  5
F0
100
DictionaryVariables
280
0
  1
2
  0
DICTIONARYVAR
  5
F1
100
DictionaryVariables
280
0
  1
1
  0
DICTIONARY
  5
EF
100
AcDbDictionary
281
1
  3
ColorSettings/BackgroundColor
350
F2
  3
ColorSettings/ColorMode
350
F3
  3
Grid/DisplayGrid00
350
F4
  3
Grid/DisplayGrid01
350
F5
  3
Grid/DisplayGrid02
350
F6
  3
Grid/DisplayGrid03
350
F7
  3
Grid/GridSpacingX00
350
F8
  3
Grid/GridSpacingX01
350
F9
  3
Grid/GridSpacingX02
350
FA
  3
Grid/GridSpacingX03
350
FB
  3
Grid/GridSpacingY00
350
FC
  3
Grid/GridSpacingY01
350
FD
  3
Grid/GridSpacingY02
350
FE
  3
Grid/GridSpacingY03
350
FF
  3
Grid/IsometricGrid00
350
100
  3
Grid/IsometricGrid01
350
101
  3
Grid/IsometricGrid02
350
102
  3
Grid/IsometricGrid03
350
103
  3
Grid/IsometricProjection00
350
104
  3
Grid/IsometricProjection01
350
105
  3
Grid/IsometricProjection02
350
106
  3
Grid/IsometricProjection03
350
107
  3
Grid/MetaGridSpacingX00
350
108
  3
Grid/MetaGridSpacingX01
350
109
  3
Grid/MetaGridSpacingX02
350
10A
  3
Grid/MetaGridSpacingX03
350
10B
  3
Grid/MetaGridSpacingY00
350
10C
  3
Grid/MetaGridSpacingY01
350
10D
  3
Grid/MetaGridSpacingY02
350
10E
  3
Grid/MetaGridSpacingY03
350
10F
  3
MultiPageSettings/Columns
350
110
  3
MultiPageSettings/GlueMarginsBottom
350
111
  3
MultiPageSettings/GlueMarginsLeft
350
112
  3
MultiPageSettings/GlueMarginsRight
350
113
  3
MultiPageSettings/GlueMarginsTop
350
114
  3
MultiPageSettings/PrintCropMarks
350
115
  3
MultiPageSettings/Rows
350
116
  3
PageSettings/OffsetX
350
117
  3
PageSettings/OffsetY
350
118
  3
PageSettings/PageOrientation
350
119
  3
PageSettings/PaperHeight
350
11A
  3
PageSettings/PaperWidth
350
11B
  3
PageSettings/Scale
350
11C
  3
PageSettings/ShowPaperBorders
350
11D
  3
QCADVersion
350
11E
  3
UnitSettings/PaperUnit
350
11F
  3
ViewportCenter
350
120
  3
ViewportHeight
350
121
  3
ViewportWidth
350
122
  0
XRECORD
  5
F2
330
EF
100
AcDbXrecord
280
1
1000
White
  0
XRECORD
  5
F3
330
EF
100
AcDbXrecord
280
1
1000
FullColor
  0
XRECORD
  5
F4
330
EF
100
AcDbXrecord
280
1
290
1
  0
XRECORD
  5
F5
330
EF
100
AcDbXrecord
280
1
290
1
  0
XRECORD
  5
F6
330
EF
100
AcDbXrecord
280
1
290
1
  0
XRECORD
  5
F7
330
EF
100
AcDbXrecord
280
1
290
1
  0
XRECORD
  5
F8
330
EF
100
AcDbXrecord
280
1
1000
auto
  0
XRECORD
  5
F9
330
EF
100
AcDbXrecord
280
1
1000
auto
  0
XRECORD
  5
FA
330
EF
100
AcDbXrecord
280
1
1000
auto
  0
XRECORD
  5
FB
330
EF
100
AcDbXrecord
280
1
1000
auto
  0
XRECORD
  5
FC
330
EF
100
AcDbXrecord
280
1
1000
auto
  0
XRECORD
  5
FD
330
EF
100
AcDbXrecord
280
1
1000
auto
  0
XRECORD
  5
FE
330
EF
100
AcDbXrecord
280
1
1000
auto
  0
XRECORD
  5
FF
330
EF
100
AcDbXrecord
280
1
1000
auto
  0
XRECORD
  5
100
330
EF
100
AcDbXrecord
280
1
290
0
  0
XRECORD
  5
101
330
EF
100
AcDbXrecord
280
1
290
0
  0
XRECORD
  5
102
330
EF
100
AcDbXrecord
280
1
290
0
  0
XRECORD
  5
103
330
EF
100
AcDbXrecord
280
1
290
0
  0
XRECORD
  5
104
330
EF
100
AcDbXrecord
280
1
 90
65537
  0
XRECORD
  5
105
330
EF
100
AcDbXrecord
280
1
 90
65537
  0
XRECORD
  5
106
330
EF
100
AcDbXrecord
280
1
 90
65537
  0
XRECORD
  5
107
330
EF
100
AcDbXrecord
280
1
 90
65537
  0
XRECORD
  5
108
330
EF
100
AcDbXrecord
280
1
1000
auto
  0
XRECORD
  5
109
330
EF
100
AcDbXrecord
280
1
1000
auto
  0
XRECORD
  5
10A
330
EF
100
AcDbXrecord
280
1
1000
auto
  0
XRECORD
  5
10B
330
EF
100
AcDbXrecord
280
1
1000
auto
  0
XRECORD
  5
10C
330
EF
100
AcDbXrecord
280
1
1000
auto
  0
XRECORD
  5
10D
330
EF
100
AcDbXrecord
280
1
1000
auto
  0
XRECORD
  5
10E
330
EF
100
AcDbXrecord
280
1
1000
auto
  0
XRECORD
  5
10F
330
EF
100
AcDbXrecord
280
1
1000
auto
  0
XRECORD
  5
110
330
EF
100
AcDbXrecord
280
1
 90
1
  0
XRECORD
  5
111
330
EF
100
AcDbXrecord
280
1
 40
10.0
  0
XRECORD
  5
112
330
EF
100
AcDbXrecord
280
1
 40
10.0
  0
XRECORD
  5
113
330
EF
100
AcDbXrecord
280
1
 40
10.0
  0
XRECORD
  5
114
330
EF
100
AcDbXrecord
280
1
 40
10.0
  0
XRECORD
  5
115
330
EF
100
AcDbXrecord
280
1
290
0
  0
XRECORD
  5
116
330
EF
100
AcDbXrecord
280
1
 90
1
  0
XRECORD
  5
117
330
EF
100
AcDbXrecord
280
1
 40
0.0
  0
XRECORD
  5
118
330
EF
100
AcDbXrecord
280
1
 40
0.0
  0
XRECORD
  5
119
330
EF
100
AcDbXrecord
280
1
1000
Portrait
  0
XRECORD
  5
11A
330
EF
100
AcDbXrecord
280
1
 40
297.0
  0
XRECORD
  5
11B
330
EF
100
AcDbXrecord
280
1
 40
210.0
  0
XRECORD
  5
11C
330
EF
100
AcDbXrecord
280
1
1000
1:1
  0
XRECORD
  5
11D
330
EF
100
AcDbXrecord
280
1
290
1
  0
XRECORD
  5
11E
330
EF
100
AcDbXrecord
280
1
1000
3.20.1.6
  0
XRECORD
  5
11F
330
EF
100
AcDbXrecord
280
1
 90
4
  0
XRECORD
  5
121
330
EF
100
AcDbXrecord
280
1
 40
84.2541304908446023
  0
XRECORD
  5
122
330
EF
100
AcDbXrecord
280
1
 40
191.4345549928033847
  0
ENDSEC
  0
EOF
